<?xml version="1.0" encoding="UTF-8" standalone="no"?>
<!-- Created with Inkscape (http://www.inkscape.org/) -->

<svg
   xmlns:dc="http://purl.org/dc/elements/1.1/"
   xmlns:cc="http://creativecommons.org/ns#"
   xmlns:rdf="http://www.w3.org/1999/02/22-rdf-syntax-ns#"
   xmlns:svg="http://www.w3.org/2000/svg"
   xmlns="http://www.w3.org/2000/svg"
   xmlns:xlink="http://www.w3.org/1999/xlink"
   xmlns:sodipodi="http://sodipodi.sourceforge.net/DTD/sodipodi-0.dtd"
   xmlns:inkscape="http://www.inkscape.org/namespaces/inkscape"
   width="1280"
   height="720"
   viewBox="0 0 1280 720.00001"
   id="svg2"
   version="1.1"
   inkscape:version="0.91 r13725"
   sodipodi:docname="Semantic_div.svg">
  <defs
     id="defs4">
    <linearGradient
       inkscape:collect="always"
       id="linearGradient3405">
      <stop
         style="stop-color:#ff0000;stop-opacity:1;"
         offset="0"
         id="stop3407" />
      <stop
         style="stop-color:#ff0000;stop-opacity:1"
         offset="1"
         id="stop3409" />
    </linearGradient>
    <linearGradient
       inkscape:collect="always"
       xlink:href="#linearGradient3405"
       id="linearGradient3411"
       x1="136.46594"
       y1="300.6951"
       x2="143.46419"
       y2="773.93158"
       gradientUnits="userSpaceOnUse" />
  </defs>
  <sodipodi:namedview
     id="base"
     pagecolor="#ffffff"
     bordercolor="#666666"
     borderopacity="1.0"
     inkscape:pageopacity="0.0"
     inkscape:pageshadow="2"
     inkscape:zoom="1.1484375"
     inkscape:cx="768.43537"
     inkscape:cy="346.57537"
     inkscape:document-units="px"
     inkscape:current-layer="layer1"
     showgrid="false"
     units="px"
     inkscape:showpageshadow="false"
     showguides="true"
     inkscape:guide-bbox="true"
     inkscape:window-width="1920"
     inkscape:window-height="1017"
     inkscape:window-x="-8"
     inkscape:window-y="-8"
     inkscape:window-maximized="1">
    <sodipodi:guide
       position="630.42177,-11.319728"
       orientation="1,0"
       id="guide4146" />
  </sodipodi:namedview>
  <metadata
     id="metadata7">
    <rdf:RDF>
      <cc:Work
         rdf:about="">
        <dc:format>image/svg+xml</dc:format>
        <dc:type
           rdf:resource="http://purl.org/dc/dcmitype/StillImage" />
        <dc:title></dc:title>
      </cc:Work>
    </rdf:RDF>
  </metadata>
  <g
     inkscape:label="Layer 1"
     inkscape:groupmode="layer"
     id="layer1"
     transform="translate(0,-332.36216)">
    <rect
       style="fill:none;fill-opacity:1;stroke:#000000;stroke-opacity:1"
       id="rect4148"
       width="920"
       height="720"
       x="164.57141"
       y="332.2533"
       rx="0" />
    <rect
       style="fill:#4d4d4d;fill-opacity:1;stroke:#000000;stroke-width:0.9515565;stroke-opacity:1"
       id="rect4150"
       width="919.55865"
       height="419.81033"
       x="165.41794"
       y="420.98428"
       ry="0" />
    <rect
       style="fill:#cccccc;fill-opacity:1;stroke:#000000;stroke-opacity:1"
       id="rect4167"
       width="175"
       height="125"
       x="237.71429"
       y="854.70233" />
    <rect
       style="fill:#cccccc;fill-opacity:1;stroke:#000000;stroke-opacity:1"
       id="rect4169"
       width="175"
       height="125"
       x="552.92517"
       y="858.18536" />
    <rect
       style="fill:#cccccc;fill-opacity:1;stroke:#000000;stroke-opacity:1"
       id="rect4173"
       width="175"
       height="125"
       x="827.21094"
       y="858.1853" />
    <path
       style="opacity:1;fill:none;fill-opacity:1;stroke:none;stroke-opacity:1"
       d="m 298.39258,1019.5653 c -1.65799,0.01 -3.20851,1.1196 -4.85742,1.1758 -5.28486,0.9515 -10.62835,1.0523 -15.99219,0.9375 -6.25226,0.01 -12.5064,-0 -18.75781,-0.1075 l -10.45313,7.5958 c 0.31181,-0.01 0.62373,-0.01 0.93555,-0.01 l -5.54883,3.6875 c 3.08067,1.4397 6.10426,2.943 9.35547,3.9609 3.09951,0.8209 6.31628,0.9001 9.48633,1.252 2.9804,0.3746 5.9778,0.5373 8.97851,0.6133 4.3321,-0.2012 8.53294,-1.406 12.62696,-2.7579 3.50894,-1.2417 7.0563,-2.368 10.73632,-2.9589 2.43906,-0.3738 4.9008,-0.3948 7.24414,0.4238 1.96148,1.0476 3.85449,2.2319 5.53711,3.6894 1.6355,1.3197 3.39108,2.4509 5.24805,3.4297 2.15605,1.194 4.50932,1.8774 6.92188,2.3028 2.59221,0.3398 5.17537,0.6953 7.7832,0.8964 2.88304,0.3135 5.71494,0.2388 8.5625,-0.2812 2.23139,-0.3401 4.38509,-0.9249 6.50195,-1.6934 1.73497,-0.7016 3.42649,-1.5093 5.11524,-2.3164 1.72477,-0.8327 3.48517,-1.5843 5.23242,-2.3672 1.47605,-0.6268 3.07007,-0.82 4.66015,-0.83 1.74874,-0.031 3.10965,0.9438 4.625,1.6425 3.02944,1.3654 6.45512,1.3622 9.71485,1.5215 3.52087,0.034 7.08673,0.3338 10.60156,-0.041 2.23571,-0.2384 3.9977,-0.6943 6.18164,-1.1816 3.33589,-0.7924 6.59042,-1.88 9.80274,-3.0684 l 10.05468,-7.8906 c -3.19475,1.2953 -6.45888,2.4355 -9.80078,3.293 -1.47696,0.3599 -4.48418,1.1357 -6,1.3339 -3.46627,0.4533 -7.01663,0.1293 -10.49414,0.1133 -3.07568,-0.1413 -6.40636,-0.061 -9.2832,-1.2754 -1.54637,-0.5743 -2.85446,-1.6857 -4.50781,-1.9179 0.53341,-0.038 1.06633,-0.085 1.5957,-0.1328 3.43043,-0.4635 1.70522,-0.2254 5.17969,-0.7188 l 10.17187,-7.6113 c -3.42603,0.4878 -1.73659,0.2532 -5.06836,0.7011 -2.22927,0.2459 -4.61956,0.6668 -6.7793,-0.1425 -1.55835,-0.6994 -2.64303,-0.9411 -4.29101,-0.2129 -1.55339,0.7106 -3.10284,1.4398 -4.71289,1.9863 -1.90269,0.1992 -3.77044,0.6877 -5.68164,0.709 -1.75488,0.033 -3.52914,0.023 -5.25,0.416 -1.77599,0.4839 -3.48294,1.1295 -5.32422,1.3789 -2.55261,0.5842 -5.23624,0.7671 -7.8457,0.8262 -2.08295,-0.038 -4.19982,-0.016 -6.23243,-0.5332 -1.75657,-0.5375 -3.33991,-1.5982 -5.1914,-1.7422 -2.16224,-0.1189 -4.13668,0.9361 -6.29688,0.9844 -2.95382,0.3076 -5.89965,0.6075 -8.875,0.4355 -2.22814,-0.056 -4.5391,-0.021 -6.63086,-0.8945 -2.44407,-1.1957 -4.74199,-2.6898 -7.08593,-4.0664 -0.39154,-0.1607 -0.75958,-0.3958 -1.17383,-0.4824 -0.24179,-0.051 -0.4819,-0.073 -0.71875,-0.072 z m -9.57227,7.8223 c 0.26873,-0.01 0.53986,0 0.81446,0.035 0.88972,0.398 1.74437,0.86 2.59179,1.3379 -3.35052,1.0906 -6.76334,1.9604 -10.27539,2.3809 -2.97475,-0.062 -5.95086,-0.1693 -8.9082,-0.5196 -3.12381,-0.3602 -6.27423,-0.4634 -9.36524,-1.0664 -0.52682,-0.1434 -1.039,-0.321 -1.55468,-0.4902 1.75334,-0 3.5065,-0.01 5.25976,-0.01 5.30918,0.034 10.62677,0.1615 15.89258,-0.6074 1.90553,-0.1677 3.6638,-1.0208 5.54492,-1.0644 z m 73.15625,0.5195 c 0.31076,0.01 0.62617,0.059 0.94922,0.1621 0.72543,0.3197 1.47333,0.5012 2.23047,0.6094 -0.64797,0.084 -1.29307,0.199 -1.92383,0.3574 -1.82014,0.6315 -3.53328,1.5624 -5.29492,2.3379 -1.71323,0.7306 -3.38785,1.5576 -5.04688,2.3984 -2.11832,0.7371 -4.17773,1.6185 -6.43164,1.877 -2.78597,0.5995 -5.51373,0.9212 -8.36914,0.5644 -2.57685,-0.1663 -5.11986,-0.5148 -7.67382,-0.8496 -2.32832,-0.2876 -4.63701,-0.7978 -6.70313,-1.959 -1.16202,-0.552 -2.25044,-1.2229 -3.31055,-1.9414 1.11385,0.2693 2.16804,0.8083 3.25391,1.2032 2.09033,0.7263 4.31164,0.7532 6.49805,0.8183 2.67311,0.077 5.34788,-0.216 7.99023,-0.5996 1.8085,-0.341 3.60772,-0.6882 5.36328,-1.2422 1.63985,-0.5387 3.36188,-0.6314 5.07227,-0.6992 1.93586,0.047 3.83263,-0.3463 5.74023,-0.6055 1.7296,-0.229 3.37332,-0.9382 4.95117,-1.6621 0.88716,-0.4404 1.77282,-0.7944 2.70508,-0.7695 z"
       id="path4192"
       inkscape:connector-curvature="0" />
    <path
       style="opacity:1;fill:none;fill-opacity:1;stroke:none;stroke-opacity:1"
       id="path4197"
       d="m 268.17944,1026.471 c 4.51156,-0.9037 8.91003,-2.289 13.40828,-3.2727 1.78855,-0.1897 3.71818,-0.9629 5.53976,-0.5684 1.44694,0.3133 2.12761,0.8146 3.44559,1.526 2.63034,1.6037 5.07616,3.6951 8.15952,4.3714 0.57232,0.1255 1.16134,0.1566 1.74201,0.2348 5.27383,-0.01 10.37316,-1.7079 15.42607,-3.0514 3.65544,-1.054 6.76764,-1.4323 10.35257,-0.018 1.78279,0.8057 3.58889,1.5154 5.26912,2.5243 1.68311,0.926 3.64905,1.0086 5.52519,1.1297 2.8268,0.3439 5.50297,-0.1191 8.24275,-0.7496 2.9986,-0.7394 6.05091,-1.1584 9.02166,-1.9957 2.40246,-0.6083 4.82784,-1.1266 7.26388,-1.6054 1.36771,-0.1214 2.62405,-0.6816 4.00077,-0.7423 0.98584,-0.043 1.99563,0.1741 2.96314,0.3314 1.03053,0.1862 1.62254,1.1323 2.53965,1.5365 0.37074,0.1634 1.0073,0.2803 1.3865,0.3635 2.5605,0.3321 5.10956,-0.326 7.61488,-0.7876 0,0 -10.28455,7.7554 -10.28455,7.7554 l 0,0 c -2.63928,0.4627 -5.35498,1.0027 -8.01164,0.3537 -1.37246,-0.4617 -2.43302,-1.4108 -3.82145,-1.7587 -2.27309,-0.2615 -4.42136,0.2201 -6.63977,0.7206 -2.43062,0.5254 -4.85941,1.0474 -7.2619,1.6922 -2.96839,0.7299 -6.01306,1.1136 -8.97258,1.8925 -2.83393,0.6009 -5.65837,0.8165 -8.55155,0.4979 -2.03868,-0.2045 -4.09729,-0.4748 -5.87612,-1.5765 -1.6433,-0.8964 -3.35247,-1.6505 -5.08029,-2.3691 -3.2943,-1.0142 -6.52591,-0.3686 -9.78647,0.5507 -5.16305,1.3312 -10.42751,3.0435 -15.81693,2.6581 -1.71461,-0.3644 -2.00678,-0.3365 -3.62096,-1.0374 -2.31912,-1.0071 -4.23834,-2.7059 -6.46709,-3.8765 -0.57088,-0.2467 -1.11885,-0.5553 -1.71266,-0.7402 -2.21664,-0.6901 -4.58639,0.1527 -6.78077,0.4871 -4.53016,1.0141 -8.97981,2.3405 -13.5102,3.3518 0,0 10.29359,-7.8283 10.29359,-7.8283 z"
       inkscape:connector-curvature="0" />
    <text
       xml:space="preserve"
       style="font-style:normal;font-weight:normal;font-size:40px;line-height:125%;font-family:Arial;letter-spacing:0px;word-spacing:0px;fill:#000000;fill-opacity:1;stroke:none;stroke-width:1px;stroke-linecap:butt;stroke-linejoin:miter;stroke-opacity:1;-inkscape-font-specification:'Arial, Condensed';font-stretch:condensed;font-variant:normal;text-anchor:middle;text-align:center;writing-mode:lr;"
       x="259.483"
       y="1023.6275"
       id="text4201"
       sodipodi:linespacing="125%"><tspan
         sodipodi:role="line"
         id="tspan4205" /></text>
    <text
       xml:space="preserve"
       style="font-style:normal;font-weight:normal;font-size:23.62773705px;line-height:125%;font-family:sans-serif;letter-spacing:0px;word-spacing:0px;fill:#000000;fill-opacity:1;stroke:none;stroke-width:1px;stroke-linecap:butt;stroke-linejoin:miter;stroke-opacity:1"
       x="239.41689"
       y="1183.4781"
       id="text4213"
       sodipodi:linespacing="125%"
       transform="scale(1.1820101,0.84601646)"><tspan
         sodipodi:role="line"
         id="tspan4215"
         x="239.41689"
         y="1183.4781">Clients </tspan><tspan
         sodipodi:role="line"
         x="239.41689"
         y="1213.0128"
         id="tspan4217" /></text>
    <text
       xml:space="preserve"
       style="font-style:normal;font-weight:normal;font-size:26.52290154px;line-height:125%;font-family:sans-serif;letter-spacing:0px;word-spacing:0px;fill:#000000;fill-opacity:1;stroke:none;stroke-width:1px;stroke-linecap:butt;stroke-linejoin:miter;stroke-opacity:1"
       x="539.75861"
       y="1134.881"
       id="text4219"
       sodipodi:linespacing="125%"
       transform="scale(1.1276395,0.88680824)"><tspan
         sodipodi:role="line"
         id="tspan4221"
         x="539.75861"
         y="1134.881">Jobs</tspan></text>
    <text
       xml:space="preserve"
       style="font-style:normal;font-weight:normal;font-size:25.86139107px;line-height:125%;font-family:sans-serif;letter-spacing:0px;word-spacing:0px;fill:#000000;fill-opacity:1;stroke:none;stroke-width:1px;stroke-linecap:butt;stroke-linejoin:miter;stroke-opacity:1"
       x="879.81696"
       y="972.2049"
       id="text4223"
       sodipodi:linespacing="125%"
       transform="scale(0.96621813,1.034963)"><tspan
         sodipodi:role="line"
         id="tspan4225"
         x="879.81696"
         y="972.2049">Inspiration</tspan></text>
    <rect
       style="opacity:1;fill:#ffffff;fill-opacity:1;stroke:none;stroke-opacity:1"
       id="rect4227"
       width="205.4966"
       height="36.571415"
       x="543.34698"
       y="643.9812" />
    <text
       xml:space="preserve"
       style="font-style:normal;font-weight:normal;font-size:30.00314522px;line-height:125%;font-family:sans-serif;letter-spacing:0px;word-spacing:0px;fill:#000000;fill-opacity:1;stroke:none;stroke-width:1px;stroke-linecap:butt;stroke-linejoin:miter;stroke-opacity:1"
       x="622.76184"
       y="631.46661"
       id="text4229"
       sodipodi:linespacing="125%"
       transform="scale(0.9336831,1.0710272)"><tspan
         sodipodi:role="line"
         id="tspan4231"
         x="622.76184"
         y="631.46661">Get a Bid</tspan></text>
    <rect
       style="opacity:1;fill:#000000;fill-opacity:1;stroke:none;stroke-opacity:1"
       id="rect4237"
       width="323.04758"
       height="0"
       x="451.91837"
       y="1028.8519" />
    <rect
       style="opacity:1;fill:#000000;fill-opacity:1;stroke:none;stroke-opacity:1"
       id="rect4239"
       width="775.83667"
       height="23.510191"
       x="235.97278"
       y="1027.9813" />
    <text
       xml:space="preserve"
       style="font-style:normal;font-weight:normal;font-size:31.16631508px;line-height:125%;font-family:sans-serif;letter-spacing:0px;word-spacing:0px;fill:#ff0000;fill-opacity:1;stroke:none;stroke-width:1px;stroke-linecap:butt;stroke-linejoin:miter;stroke-opacity:1"
       x="535.96191"
       y="1152.7838"
       id="text4244"
       sodipodi:linespacing="125%"
       transform="scale(1.1025372,0.90699887)"><tspan
         sodipodi:role="line"
         id="tspan4246"
         x="535.96191"
         y="1152.7838">Footer</tspan></text>
    <text
       xml:space="preserve"
       style="font-style:normal;font-weight:normal;font-size:58.22779846px;line-height:125%;font-family:sans-serif;letter-spacing:0px;word-spacing:0px;fill:#ff0000;fill-opacity:1;stroke:none;stroke-width:1px;stroke-linecap:butt;stroke-linejoin:miter;stroke-opacity:1"
       x="416.43646"
       y="468.42703"
       id="text3371"
       sodipodi:linespacing="125%"
       transform="scale(1.2077316,0.82799853)"><tspan
         sodipodi:role="line"
         id="tspan3373"
         x="416.43646"
         y="468.42703">Nav Bar</tspan></text>
    <text
       xml:space="preserve"
       style="font-style:normal;font-weight:normal;font-size:40px;line-height:125%;font-family:sans-serif;letter-spacing:0px;word-spacing:0px;fill:#ff0000;fill-opacity:1;stroke:none;stroke-width:1px;stroke-linecap:butt;stroke-linejoin:miter;stroke-opacity:1;"
       x="526.80273"
       y="495.08325"
       id="text3385"
       sodipodi:linespacing="125%"><tspan
         sodipodi:role="line"
         id="tspan3387"
         x="526.80273"
         y="495.08325">Header</tspan></text>
    <text
       xml:space="preserve"
       style="font-style:normal;font-weight:normal;font-size:40px;line-height:125%;font-family:sans-serif;letter-spacing:0px;word-spacing:0px;fill:#ff0000;fill-opacity:1;stroke:none;stroke-width:1px;stroke-linecap:butt;stroke-linejoin:miter;stroke-opacity:1"
       x="262.09521"
       y="906.07648"
       id="text3389"
       sodipodi:linespacing="125%"><tspan
         sodipodi:role="line"
         id="tspan3391"
         x="262.09521"
         y="906.07648">Article</tspan></text>
    <text
       xml:space="preserve"
       style="font-style:normal;font-weight:normal;font-size:40px;line-height:125%;font-family:sans-serif;letter-spacing:0px;word-spacing:0px;fill:#ff0000;fill-opacity:1;stroke:none;stroke-width:1px;stroke-linecap:butt;stroke-linejoin:miter;stroke-opacity:1"
       x="587.75513"
       y="906.9472"
       id="text3393"
       sodipodi:linespacing="125%"><tspan
         sodipodi:role="line"
         id="tspan3395"
         x="587.75513"
         y="906.9472">Article</tspan></text>
    <text
       xml:space="preserve"
       style="font-style:normal;font-weight:normal;font-size:40px;line-height:125%;font-family:sans-serif;letter-spacing:0px;word-spacing:0px;fill:#ff0000;fill-opacity:1;stroke:none;stroke-width:1px;stroke-linecap:butt;stroke-linejoin:miter;stroke-opacity:1;"
       x="849.85028"
       y="901.72272"
       id="text3397"
       sodipodi:linespacing="125%"><tspan
         sodipodi:role="line"
         id="tspan3399"
         x="849.85028"
         y="901.72272">Article</tspan></text>
    <text
       xml:space="preserve"
       style="font-style:normal;font-weight:normal;font-size:42.46738815px;line-height:125%;font-family:sans-serif;letter-spacing:0px;word-spacing:0px;fill:url(#linearGradient3411);fill-opacity:1;stroke:none;stroke-width:1px;stroke-linecap:butt;stroke-linejoin:miter;stroke-opacity:1"
       x="5.1647201"
       y="437.91998"
       id="text3401"
       sodipodi:linespacing="125%"
       transform="scale(0.74654198,1.3395094)"><tspan
         sodipodi:role="line"
         id="tspan3403"
         x="5.1647201"
         y="437.91998"
         style="fill-opacity:1;fill:url(#linearGradient3411)">Wrapper</tspan></text>
    <path
       style="fill:#ff0000;fill-rule:evenodd;stroke:#000000;stroke-width:0.42650139px;stroke-linecap:butt;stroke-linejoin:miter;stroke-opacity:1"
       d="m 140.15848,1023.0725 c 0.0516,0 0.11929,0.2083 0.1561,0 0.005,-0.028 0,-2.4361 0,-2.6504 0,-0.3243 -0.006,-3.4982 0,-3.5338 0.0367,-0.2082 0.11929,0.2083 0.15611,0 0.0367,-0.2082 -0.0229,-0.6201 0,-0.8834 0.0333,-0.3725 0.12319,-0.5109 0.1561,-0.8834 0.0493,-0.5575 -0.0493,-3.86 0,-4.4173 0.0333,-0.3725 0.13283,-0.4884 0.15611,-0.8835 0.0275,-0.4749 0,-2.7858 0,-3.5338 0,-2.3888 -0.0413,-6.74509 0,-8.83453 0.0241,-1.20677 0.13672,-2.32461 0.1561,-3.53382 0.047,-2.93276 0,-5.8897 0,-8.83455 0,-5.59521 0,-11.19043 0,-16.78563 0,-16.19667 0,-32.39334 0,-48.59001 0,-4.84744 -0.0172,2.73518 0.15611,-7.06764 0.0206,-1.17209 0,-2.35587 0,-3.53382 0,-2.35588 0,-4.71175 0,-7.06764 0,-5.59521 0,-11.19042 0,-16.78562 0,-1.47243 0,-2.94486 0,-4.41729 0,-1.17793 -0.0207,-2.36172 0,-3.53381 0.031,-1.7824 0.12112,-3.5204 0.1561,-5.30073 0.0172,-0.87805 0,-1.76691 0,-2.65036 0,-2.35588 0,-4.71176 0,-7.06764 0,-5.30072 0,-10.60146 0,-15.90218 0,-14.13527 0,-28.27056 0,-42.40582 0,-6.77316 -0.0516,-13.5527 0,-20.31946 0.007,-0.93036 0.15003,-1.71975 0.15611,-2.65036 0.0539,-8.23993 0,-16.49115 0,-24.73674 0,-23.2643 0,-46.52861 0,-69.79291 0,-18.55255 0,-37.10509 0,-55.65763 0,-9.12905 0.0654,-18.26567 0,-27.38711 -0.047,-6.49997 -0.25383,-12.93901 -0.31221,-19.43599 -0.0975,-10.88586 -0.10438,-21.79188 -0.15611,-32.68782 0,-1.17795 0.007,-2.35664 0,-3.53383 -0.0447,-7.06926 -0.12766,-14.13096 -0.1561,-21.2029 -0.0241,-5.88818 0.0344,-11.78267 0,-17.6691 -0.0172,-2.95789 -0.12789,-5.87932 -0.15611,-8.83454 -0.79107,-82.81722 0.41407,21.77781 -0.46831,-40.63892 -0.12892,-9.11887 -0.19912,-18.26152 -0.31221,-27.38709 -0.0952,-7.66038 -0.18937,-15.32213 -0.31221,-22.96982 -0.0333,-2.07377 -0.13569,-4.10507 -0.1561,-6.18419 -0.0321,-3.23433 0.0241,-6.48147 0,-9.718 -0.0745,-10.09132 -0.0631,-8.85036 -0.31221,-15.90218 0.1561,-0.88345 0.31221,-1.7669 0.46831,-2.65036 0,-0.29448 -0.0367,-0.67522 0,-0.88346 0.0367,-0.20824 0.10438,0 0.1561,0 0.31221,0 0.62442,0 0.93675,0"
       id="path3422"
       inkscape:connector-curvature="0" />
    <path
       style="fill:#ff0000;fill-rule:evenodd;stroke:#000000;stroke-width:1px;stroke-linecap:butt;stroke-linejoin:miter;stroke-opacity:1"
       d="m 124.20814,1021.1249 c 4.07003,0.1116 8.14005,0.2231 12.21009,0.3346 0.21151,0.01 2.07597,0.029 2.61644,0.072 3.9608,0.3134 11.97333,0.9926 15.93414,1.3059 0.75327,0.059 3.94953,0.1082 4.36074,0.1195 0.2907,0.01 -3.08866,-0.2895 0.87215,0.024 3.96264,0.3134 11.97334,0.9924 15.93599,1.306 0.67555,0.053 3.1683,0.087 3.48859,0.096"
       id="path3424"
       inkscape:connector-curvature="0" />
    <path
       style="fill:#ff0000;fill-rule:evenodd;stroke:#000000;stroke-width:1.23669386px;stroke-linecap:butt;stroke-linejoin:miter;stroke-opacity:1"
       d="m 138.44898,370.56624 c 5.32693,0 10.65387,0 15.98079,0 0.44392,0 0.88783,0 1.33174,0 0.44391,0 1.01784,0.20524 1.33173,0 0.31389,-0.20524 -0.31389,-0.66551 0,-0.87075 0.62778,-0.41047 2.03568,0.41048 2.66346,0 1.77565,-1.16099 -2.21954,-0.87075 1.33173,-0.87075"
       id="path3426"
       inkscape:connector-curvature="0" />
  </g>
</svg>
